<?xml version="1.0" encoding="utf-8" ?>
<svg baseProfile="full" height="100%" version="1.1" width="100%" xmlns="http://www.w3.org/2000/svg" xmlns:ev="http://www.w3.org/2001/xml-events" xmlns:xlink="http://www.w3.org/1999/xlink">
  <defs/>
  <rect fill="black" height="110" width="130" x="0" y="0"/>
  <polyline fill="none" points="70.16576611185096,72.84152226104338 69.90153152738148,72.47440672592569 69.40147656187925,71.82923846122426 68.7104669346315,71.03793327923182 67.87920148488249,70.21771501330777 66.95772783379483,69.4353858405085 65.98787936926531,68.70505888194332 64.99721385522776,68.01141661655589 63.99949673468993,67.33556965575248 62.99993308371043,66.66500052584718 62.0,65.99123569563722 61.0,65.3058544693025 60.000000000000014,64.59980424022194 59.0,63.87075147118195 58.000000000000014,63.13304120421047 57.0,62.41453235368534 56.000000000000014,61.744678735955375 55.0,61.15377263267537 54.000000000000014,60.67723876168094 53.000066916289576,60.34217237123855 52.000637097889225,60.145008328312585 51.00385959168199,60.05053320525788 50.018062353010116,60.01426967761772 49.068025376668345,60.00322249379276 48.2097442948986,60.000570181599656 47.537210639498916,60.00006691628958 47.16170023274938,60.000000000000014" stroke="white" stroke-width="4"/>
</svg>
